# xmcd
#
# Track frame offsets:
#	182
#	11857
#	24195
#
# Disc length: 475 seconds
#
# Revision: 0
# Processed by: cddbd v1.5.2PL0 Copyright (c) Steve Scherf et al.
# Submitted via: audiograbber 1.83.01
#
DISCID=1701d903
DTITLE=Rolf Sehne - Ich bin und bleib ein Lausbub
DYEAR=2004
DGENRE=Volksmusik
TTITLE0=Ich bin und bleib ein Lausbub
TTITLE1=Ein Sonnenstrahl, der steckt an meiner Mütze
TTITLE2=Ich bin und bleib ein Lausbub (karaoke)
EXTD=<http://www.hit-radio24.de> \n
EXTT0=
EXTT1=
EXTT2=
PLAYORDER=
